<svg version="1.1" xmlns="http://www.w3.org/2000/svg" width="40" height="40" viewBox="0 0 1024 1024"><path d="M0 0 C337.92 0 675.84 0 1024 0 C1024 337.92 1024 675.84 1024 1024 C686.08 1024 348.16 1024 0 1024 C0 686.08 0 348.16 0 0 Z " fill="#1E252B" transform="translate(0,0)" /><path d="M0 0 C337.92 0 675.84 0 1024 0 C1024 337.92 1024 675.84 1024 1024 C686.08 1024 348.16 1024 0 1024 C0 686.08 0 348.16 0 0 Z M125 129 C124.37351562 129.55300781 123.74703125 130.10601562 123.1015625 130.67578125 C111.66249077 141.10552312 103.89460947 158.20602343 102.81419881 173.65717745 C102.74205238 176.67154897 102.73108276 179.68015168 102.74273109 182.69537354 C102.73922502 183.85044747 102.73571895 185.00552141 102.73210663 186.19559759 C102.72442197 189.39330517 102.72563574 192.59086444 102.73066217 195.78857265 C102.7339381 199.27079614 102.72563852 202.75299562 102.71884382 206.23521137 C102.70854864 212.3357204 102.70569919 218.4361977 102.70775604 224.53671455 C102.71080732 233.60883335 102.70247917 242.68091706 102.69200679 251.75302903 C102.67266586 268.90034774 102.66703851 286.04765449 102.66589268 303.19498283 C102.66497344 316.43928628 102.660856 329.68358504 102.65449142 342.92788696 C102.65269632 346.74087238 102.65091669 350.5538578 102.64914167 354.36684322 C102.64869957 355.31478247 102.64825748 356.26272171 102.64780198 357.23938639 C102.6354934 383.90375654 102.62760086 410.56812506 102.62848854 437.23249817 C102.6285197 438.23780315 102.62855086 439.24310813 102.62858296 440.27887689 C102.62874917 445.37411415 102.62894725 450.46935141 102.62915237 455.56458867 C102.62919226 456.57650917 102.62923215 457.58842966 102.62927325 458.63101442 C102.62935413 460.67736549 102.62943772 462.72371655 102.62952404 464.77006762 C102.63074921 496.59917143 102.61574266 528.42823261 102.58837891 560.25732422 C102.55764325 596.02324951 102.54044735 631.7891468 102.54230535 667.55508614 C102.54245461 671.3705864 102.54255202 675.18608665 102.54261398 679.00158691 C102.54263729 679.9410477 102.5426606 680.88050848 102.54268462 681.84843777 C102.54274611 696.95346032 102.52998534 712.0584458 102.51274945 727.16345733 C102.49577754 742.35156256 102.4938313 757.5396137 102.5069681 772.72772318 C102.51434718 781.74470235 102.51073054 790.76151693 102.49108342 799.77847859 C102.47905392 805.81032393 102.48170736 811.84205052 102.49602441 817.8738905 C102.50376256 821.30499355 102.50541206 824.73577892 102.48910971 828.16685915 C102.38242788 856.04472692 106.56038781 874.9138322 126.1875 895.625 C141.19179982 910.25729239 160.28935937 916.34199223 180.87644672 916.25168228 C182.62018366 916.2560426 182.62018366 916.2560426 184.3991476 916.26049101 C187.61297206 916.2665131 190.82664347 916.26363816 194.04046191 916.25693511 C197.54182771 916.25184598 201.04317546 916.25838777 204.54453868 916.26342177 C210.67699675 916.27063641 216.80941959 916.27043138 222.94187927 916.26532745 C232.06126691 916.25775823 241.18062486 916.26163223 250.3000123 916.26774407 C266.58867481 916.27827442 282.87732162 916.27736312 299.16598561 916.27158624 C313.42234686 916.26655499 327.67870236 916.26524179 341.93506432 916.26763153 C342.8807515 916.2677843 343.82643867 916.26793707 344.80078304 916.26809447 C348.63967574 916.26871715 352.47856843 916.26935395 356.31746112 916.270014 C392.33207429 916.27613243 428.34667748 916.27058466 464.36128912 916.2598202 C496.35162323 916.25033126 528.34194142 916.25117627 560.33227539 916.26074219 C596.27652327 916.27145451 632.22076233 916.2756962 668.16501158 916.26951766 C671.99783718 916.26887623 675.83066279 916.26825055 679.66348839 916.26763153 C680.60722181 916.26747338 681.55095524 916.26731522 682.52328665 916.26715227 C696.76791041 916.26487836 711.01252778 916.267536 725.25715065 916.27259064 C741.45802432 916.27831078 757.65887985 916.27687611 773.85975126 916.26602915 C782.92418686 916.26016025 791.98858316 916.25976791 801.05301773 916.2673215 C807.11135737 916.27181272 813.16966557 916.26900345 819.22800057 916.26031196 C822.67742926 916.25556436 826.12678 916.25390689 829.57620618 916.26112393 C833.29955532 916.2672143 837.02269175 916.26095793 840.74602985 916.25168228 C841.80639248 916.25636461 842.86675511 916.26104695 843.95924994 916.26587117 C865.2958325 916.15979232 883.75645319 910.2188008 899 895 C900.16015625 893.85724609 900.16015625 893.85724609 901.34375 892.69140625 C915.94231189 877.46790593 922.34160406 858.10923809 922.25447559 837.28531361 C922.25768207 836.14030525 922.26088855 834.99529689 922.26419219 833.81559131 C922.27249046 829.98059138 922.26656836 826.1457477 922.26069641 822.31074524 C922.2626115 819.53268607 922.26752551 816.75463397 922.27228898 813.97657841 C922.28104054 807.93730634 922.2823668 801.89806819 922.27878571 795.85879135 C922.27347439 786.87785832 922.27957837 777.89695807 922.28786864 768.91602861 C922.30310697 751.94160536 922.30481384 734.96719704 922.30234561 717.99276838 C922.30051262 704.88338802 922.3022727 691.77401255 922.30657005 678.6646328 C922.30717246 676.78088761 922.30777365 674.89714243 922.30837366 673.01339724 C922.30928092 670.17471879 922.31018958 667.33604034 922.31110601 664.4973619 C922.31953547 638.10484307 922.32387132 611.71232608 922.31969929 585.3198061 C922.31954291 584.32489672 922.31938654 583.32998734 922.31922542 582.30492919 C922.31841964 577.26240268 922.31757387 572.21987617 922.31671212 567.17734966 C922.31654103 566.17589969 922.31636994 565.17444971 922.31619367 564.14265277 C922.31584702 562.11747712 922.31549849 560.09230148 922.31514808 558.06712584 C922.30979168 526.56012035 922.31771902 495.05314285 922.33618164 463.54614258 C922.35690383 428.14170336 922.36762387 392.73728148 922.36360615 357.33283585 C922.36321081 353.55670591 922.36284927 349.78057597 922.36250877 346.00444603 C922.36241804 345.07467895 922.36232731 344.14491188 922.36223383 343.18697004 C922.36106846 329.15875614 922.36771162 315.13055976 922.37832069 301.10235023 C922.39037681 285.1445373 922.39192697 269.18676292 922.37953053 253.22894941 C922.37290645 244.30266524 922.37452255 235.37647333 922.38811904 226.45019657 C922.39637592 220.48139239 922.39364992 214.51265716 922.38214377 208.54385856 C922.37589949 205.14713846 922.37592401 201.75074443 922.38600711 198.35401193 C922.45700924 172.64688461 919.93915201 150.0269372 901.45703125 130.44140625 C883.17187614 112.27253193 861.60348738 106.8262815 836.39553738 106.86857224 C834.67767244 106.86549328 834.67767244 106.86549328 832.92510316 106.86235213 C829.08331293 106.85669273 825.24155867 106.85813808 821.39976501 106.85955811 C818.6191591 106.85752285 815.83855551 106.85399922 813.05795103 106.8505547 C806.21467439 106.84298984 799.37140555 106.84078242 792.52812516 106.84022565 C784.3295205 106.83931052 776.13092303 106.83263858 767.93232147 106.82587883 C748.11904083 106.80983233 728.30576098 106.80391722 708.49247502 106.79913008 C699.11714836 106.79679292 689.74182232 106.79319016 680.36649614 106.7894347 C648.26519756 106.77660081 616.16389932 106.76588115 584.06259823 106.7624321 C582.04815731 106.76221047 580.03371638 106.76198868 578.01927546 106.76176675 C576.00001319 106.76154611 573.98075093 106.76132563 571.96148866 106.7611053 C567.91060507 106.76066275 563.85972148 106.76021563 559.80883789 106.75976562 C558.80445719 106.75965623 557.8000765 106.75954684 556.76526002 106.75943414 C524.19851231 106.75580354 491.63178686 106.73988255 459.06504767 106.71657526 C424.62223977 106.69197043 390.17944459 106.67825897 355.73662764 106.67706418 C351.95456636 106.67689273 348.17250508 106.6766773 344.3904438 106.67642975 C343.4592145 106.67637398 342.5279852 106.67631821 341.56853682 106.67626075 C326.59349925 106.67511093 311.61848455 106.66409486 296.6434547 106.64954269 C281.58755976 106.63516508 266.53169411 106.63194787 251.47579419 106.63998267 C242.53639223 106.64443282 233.59708489 106.64060291 224.6576954 106.62474416 C218.67883973 106.61497024 212.70005011 106.61619537 206.72119499 106.62618039 C203.31953285 106.6315551 199.91819894 106.63066265 196.51652872 106.61967167 C169.20693004 106.53703848 145.45870762 109.1388835 125 129 Z " fill="#F4F3F3" transform="translate(0,0)" /><path d="M0 0 C6.48403665 0.12065654 12.96798931 0.24528997 19.4519043 0.37231445 C21.64394522 0.41483352 23.83600213 0.45653865 26.02807617 0.49731445 C38.46860666 0.72933908 50.90093263 1.04347281 63.3347168 1.51977539 C64.56223412 1.56604317 65.78975143 1.61231094 67.05446625 1.65998077 C70.03634325 1.77249159 73.0181857 1.88584134 76 2 C76.13244231 28.46694842 76.26288766 54.93390608 76.39115143 81.40087509 C76.45079159 93.69856976 76.5110197 105.99626096 76.57275391 118.29394531 C76.84637157 172.86286098 77.09980298 227.43028882 77 282 C75.7524292 282.03283081 74.5048584 282.06566162 73.21948242 282.0994873 C72.41666336 282.12061836 71.6138443 282.14174942 70.78669739 282.16352081 C69.0326191 282.20967216 67.27853991 282.25578899 65.52445984 282.30187225 C61.92334868 282.39651492 58.3222454 282.49133801 54.72119141 282.58813477 C52.25167432 282.65448483 49.78210368 282.71821827 47.3125 282.78125 C46.13977539 282.8136377 46.13977539 282.8136377 44.94335938 282.84667969 C36.95572355 283.04684717 28.99988657 283 21 283 C20.67 219.31 20.34 155.62 20 90 C8.33765056 121.34148247 8.33765056 121.34148247 -3.3125 152.6875 C-10.22565104 171.27642452 -17.17353963 189.85237753 -24.13046265 208.42495728 C-25.31984412 211.6002858 -26.50848591 214.77588953 -27.69644165 217.95175171 C-34.3319423 235.68898388 -41.04406248 253.38517624 -48 271 C-62.85 271 -77.7 271 -93 271 C-98.13121862 257.01928839 -103.25844845 243.03724034 -108.36328125 229.046875 C-124.395352 185.11240137 -140.60727943 141.24966983 -157.07028198 97.47476196 C-158.38177666 93.98377106 -159.69058561 90.49177172 -161 87 C-161.33 151.35 -161.66 215.7 -162 282 C-179.49 282 -196.98 282 -215 282 C-215.02291864 257.13997044 -215.04118934 232.27994993 -215.05181217 207.41991234 C-215.05688414 195.86685165 -215.06377443 184.31379825 -215.07543945 172.76074219 C-215.11979584 127.85523687 -215.14706721 82.95183277 -214.59018397 38.04903841 C-214.55877493 35.49131636 -214.52896579 32.93357945 -214.49940681 30.37583542 C-214.45335136 26.45305518 -214.40161181 22.53039401 -214.344661 18.60775709 C-214.32455614 17.18684958 -214.30597379 15.76591961 -214.28900599 14.34497118 C-214.26555339 12.43040669 -214.23516253 10.51593082 -214.20433044 8.60147095 C-214.18897468 7.53586252 -214.17361891 6.4702541 -214.15779781 5.37235451 C-214 3 -214 3 -213 2 C-210.69946165 1.90556665 -208.39597827 1.88257872 -206.09350586 1.88647461 C-205.37159561 1.88632858 -204.64968536 1.88618256 -203.90589905 1.8860321 C-201.50885053 1.88673131 -199.11187877 1.89452405 -196.71484375 1.90234375 C-195.05717511 1.9042079 -193.39950593 1.90563182 -191.74183655 1.90663147 C-187.37045786 1.91045688 -182.99911219 1.92028735 -178.62774658 1.93133545 C-174.17045539 1.94154908 -169.71315889 1.94612899 -165.25585938 1.95117188 C-156.50389107 1.9619096 -147.75194964 1.97898629 -139 2 C-138.61187637 3.05537964 -138.22375275 4.11075928 -137.8238678 5.19812012 C-130.93971908 23.91656103 -124.03031535 42.62502185 -117.0625 61.3125 C-111.82614486 75.35739183 -106.6374572 89.41863825 -101.5 103.5 C-96.23312721 117.93375445 -90.91995724 132.34961198 -85.5625 146.75 C-85.23910645 147.62003662 -84.91571289 148.49007324 -84.58251953 149.38647461 C-79.78735196 162.28284823 -74.91495737 175.1488202 -70 188 C-54.32750339 149.07120137 -40.09411688 109.63107526 -25.84790039 70.16333008 C-21.025655 56.80730542 -16.14344945 43.47609635 -11.18115234 30.17138672 C-8.90322848 24.05517527 -6.64050361 17.93332027 -4.375 11.8125 C-3.5287015 9.52732313 -2.68235289 7.24216482 -1.8359375 4.95703125 C-1.48063965 3.99772705 -1.1253418 3.03842285 -0.75927734 2.05004883 C-0.50871582 1.37353271 -0.2581543 0.6970166 0 0 Z " fill="#F5F5F4" transform="translate(686,528)" /><path d="M0 0 C12.23991444 6.85745735 22.80121815 20.13998145 32.62597656 29.99560547 C34.67529136 32.05033133 36.72996888 34.09958728 38.78515625 36.1484375 C40.1162065 37.4801479 41.44694686 38.81216813 42.77734375 40.14453125 C43.3785202 40.74368347 43.97969666 41.34283569 44.59909058 41.96014404 C48.31348281 45.69478754 51.83182386 49.5538481 55.26528931 53.54853821 C57.1671849 55.72166673 59.19950686 57.72650301 61.28515625 59.72265625 C68.26551248 66.61934383 73.87205961 72.34455433 74.09765625 82.47265625 C74.15373047 84.10267578 74.15373047 84.10267578 74.2109375 85.765625 C72.93696544 96.29634821 64.83522847 102.77269615 57.69213867 109.81640625 C56.44097129 111.06480522 55.19069433 112.31409712 53.9412384 113.56420898 C50.55734633 116.94498638 47.16135896 120.31337325 43.76317763 123.67977905 C40.20087152 127.21325942 36.65037222 130.75856212 33.09870911 134.30273438 C26.36821724 141.01564873 19.62802453 147.71872948 12.88390094 154.41794586 C2.99975827 164.23695645 -6.87185191 174.06855414 -16.74092388 183.90270996 C-17.46656924 184.6257859 -18.19221459 185.34886185 -18.9398492 186.09384918 C-20.38749557 187.53639659 -21.8351086 188.97897746 -23.28268737 190.42159271 C-27.5072986 194.63100342 -31.73543822 198.83682854 -35.96670306 203.03955078 C-38.60489419 205.66064745 -41.24107847 208.28375638 -43.87687874 210.90725708 C-45.09372526 212.11747486 -46.3114626 213.32679775 -47.5301857 214.53512573 C-53.16318857 220.120684 -58.76344184 225.68991754 -63.90134811 231.74358368 C-65.63902177 233.78298904 -67.49665473 235.68034069 -69.3984375 237.56640625 C-70.09775391 238.2625 -70.79707031 238.95859375 -71.51757812 239.67578125 C-72.22205078 240.371875 -72.92652344 241.06796875 -73.65234375 241.78515625 C-74.38388672 242.5121875 -75.11542969 243.23921875 -75.86914062 243.98828125 C-77.64874199 245.75625124 -79.43065293 247.52182003 -81.21484375 249.28515625 C-84.65453693 247.35040196 -87.41101435 245.33736989 -90.19490051 242.54560852 C-90.95063354 241.79262482 -91.70636658 241.03964111 -92.48500061 240.26383972 C-93.70635963 239.03169487 -93.70635963 239.03169487 -94.95239258 237.7746582 C-96.25558945 236.47189941 -96.25558945 236.47189941 -97.58511353 235.14282227 C-99.95822618 232.76855743 -102.32682207 230.3899511 -104.69350266 228.00928521 C-107.17095814 225.5193025 -109.65410238 223.03500607 -112.13664246 220.5500946 C-116.83311485 215.8474133 -121.52446693 211.13965836 -126.21398991 206.43004817 C-131.55466316 201.0669976 -136.90103633 195.70964471 -142.24789011 190.3527571 C-153.24321837 179.33654018 -164.23138542 168.3132086 -175.21484375 157.28515625 C-173.91006204 154.40681327 -172.52579516 152.34880526 -170.28804016 150.12457275 C-169.68958786 149.52481628 -169.09113556 148.92505981 -168.47454834 148.30712891 C-167.81948303 147.6608252 -167.16441772 147.01452148 -166.48950195 146.34863281 C-165.79819687 145.65864197 -165.10689178 144.96865112 -164.39463806 144.25775146 C-162.10619211 141.97580021 -159.81085523 139.70090687 -157.515625 137.42578125 C-155.9204865 135.83691585 -154.32586386 134.24753241 -152.73173523 132.65765381 C-148.52839779 128.4676292 -144.31954069 124.2831968 -140.10906982 120.1003418 C-133.38660026 113.42094155 -126.67071486 106.73493933 -119.9582119 100.0455246 C-117.61926347 97.71674094 -115.27689673 95.39143738 -112.93415833 93.06646729 C-111.48503927 91.6241837 -110.0360334 90.18178638 -108.5871582 88.73925781 C-107.61974197 87.78194763 -107.61974197 87.78194763 -106.63278198 86.80529785 C-102.89913332 83.08088747 -99.38585519 79.22991484 -95.9384737 75.24008179 C-93.18787563 72.12037828 -90.27016518 69.17673329 -87.33666992 66.22998047 C-86.68846786 65.57520721 -86.04026581 64.92043396 -85.37242126 64.24581909 C-83.25374284 62.10763535 -81.13124647 59.9733043 -79.0078125 57.83984375 C-78.27649927 57.10445499 -77.54518604 56.36906624 -76.79171181 55.61139297 C-72.92521449 51.72413875 -69.05552231 47.84009658 -65.18334961 43.95849609 C-61.20410681 39.96816962 -57.23668759 35.96629722 -53.27176952 31.96174431 C-50.20107936 28.8648285 -47.12145907 25.77690874 -44.03942299 22.69128799 C-42.57335866 21.22037859 -41.11065001 19.74611605 -39.65151024 18.26833725 C-16.37652718 -5.28554581 -16.37652718 -5.28554581 0 0 Z " fill="#F6F5F4" transform="translate(801.21484375,151.71484375)" /><path d="M0 0 C0 16.5 0 33 0 50 C-35.31 50 -70.62 50 -107 50 C-107 71.78 -107 93.56 -107 116 C-75.32 116 -43.64 116 -11 116 C-11 132.83 -11 149.66 -11 167 C-42.68 167 -74.36 167 -107 167 C-107 204.29 -107 241.58 -107 280 C-125.81 280 -144.62 280 -164 280 C-164 187.93 -164 95.86 -164 1 C-140.095625 0.835 -116.19125 0.67 -91.5625 0.5 C-84.04283447 0.44779297 -76.52316895 0.39558594 -68.77563477 0.34179688 C-59.5213623 0.27832031 -59.5213623 0.27832031 -55.17515564 0.24865723 C-52.17006734 0.22810765 -49.16498148 0.20723534 -46.15989685 0.18615723 C-42.30514292 0.15913044 -38.45038539 0.13268247 -34.5956248 0.10662174 C-32.54249709 0.09260534 -30.48937326 0.07802391 -28.43624973 0.0634079 C-18.95681796 0.00012264 -9.48024244 0 0 0 Z " fill="#F5F5F4" transform="translate(426,530)" /><path d="M0 0 C3.02977429 1.35231187 5.08472613 2.85480543 7.390625 5.23046875 C8.01839844 5.86919922 8.64617188 6.50792969 9.29296875 7.16601562 C10.26169922 8.16665039 10.26169922 8.16665039 11.25 9.1875 C12.52340512 10.49606048 13.79945186 11.80205549 15.078125 13.10546875 C15.91972168 13.97401489 15.91972168 13.97401489 16.77832031 14.86010742 C18.72052385 16.73081226 20.70660443 18.49189284 22.74682617 20.25341797 C26.99701902 23.94911123 30.99716765 27.85252885 34.97265625 31.83984375 C35.69940048 32.56563126 36.42614471 33.29141876 37.1749115 34.03919983 C38.69962296 35.56323556 40.2230915 37.08851569 41.74536133 38.61499023 C44.05633891 40.93132463 46.37260771 43.24227078 48.68945312 45.55273438 C50.1800082 47.04395034 51.670253 48.53547653 53.16015625 50.02734375 C53.84263931 50.70780258 54.52512238 51.38826141 55.22828674 52.08934021 C59.13447083 56.01434116 62.86285702 60.04111634 66.47009277 64.24304199 C72.16160504 70.77922136 78.55541064 76.74407974 85.140625 82.36328125 C88.24136992 85.09271848 91.12097909 88.04000663 94 91 C92.58101678 95.58248112 90.00064673 98.42289428 86.625 101.6875 C86.14289063 102.17283203 85.66078125 102.65816406 85.1640625 103.15820312 C81.2900299 106.97433578 78.32917762 109.21298577 72.83203125 109.30859375 C72.02975098 109.33147461 71.2274707 109.35435547 70.40087891 109.37792969 C69.54671387 109.39758789 68.69254883 109.41724609 67.8125 109.4375 C42.35259782 110.40801724 21.06048576 118.06004645 1 134 C-3.83298806 129.97251947 -8.38110004 125.75620587 -12.80859375 121.2890625 C-13.42017838 120.67606293 -14.031763 120.06306335 -14.66188049 119.43148804 C-16.58947559 117.49835436 -18.51353928 115.56175013 -20.4375 113.625 C-21.75432404 112.30315301 -23.07137926 110.98153628 -24.38867188 109.66015625 C-27.59512373 106.44275701 -30.79841629 103.22224319 -34 100 C-32.8985412 98.26816321 -31.79695328 96.53640854 -30.6953125 94.8046875 C-30.08187988 93.84030762 -29.46844727 92.87592773 -28.83642578 91.88232422 C-27.66079873 90.03714302 -26.48160456 88.19422671 -25.29785156 86.35424805 C-16.75636515 72.97190205 -13.88305637 59.16954576 -13.83203125 43.48046875 C-13.82570175 42.22706947 -13.82570175 42.22706947 -13.81924438 40.948349 C-13.80748552 37.48243446 -13.80211746 34.01771835 -13.84545898 30.55200195 C-14.01933353 14.03699713 -14.01933353 14.03699713 -9.6640625 9.01953125 C-8.47455802 7.97557325 -7.25342168 6.96628325 -6 6 C-4.84204372 4.84536482 -3.69534699 3.67928064 -2.5625 2.5 C-1.716875 1.675 -0.87125 0.85 0 0 Z " fill="#F5F5F4" transform="translate(610,324)" /><path d="M0 0 C11.03913945 -0.16207546 21.98440762 0.34235269 33 1 C31.12630674 8.68446447 29.10631956 16.30427827 26.8828125 23.89453125 C26.27636823 25.98150335 25.67000791 28.06849984 25.0637207 30.15551758 C24.74795074 31.23958893 24.43218079 32.32366028 24.10684204 33.44058228 C18.97723408 51.0570779 13.94580787 68.69474513 9.10998535 86.39416504 C4.49077185 103.29781377 -0.38024906 120.09070238 -5.61083984 136.81518555 C-9.17042562 148.20835018 -12.53244358 159.64843296 -15.8125 171.125 C-19.55351028 184.20705542 -23.54754212 197.13734391 -28 210 C-38.56 210 -49.12 210 -60 210 C-57.87366435 200.96307349 -55.46839035 192.10616704 -52.6875 183.25 C-46.02057456 161.95151335 -40.00930698 140.45301232 -33.86053467 119.00079346 C-32.84795067 115.46978471 -31.83308603 111.939435 -30.81793213 108.40916443 C-26.25832017 92.54857304 -21.78128852 76.66697117 -17.38067627 60.76153564 C-14.15856003 49.118088 -10.88289081 37.49080707 -7.5625 25.875 C-7.35294678 25.14120117 -7.14339355 24.40740234 -6.92749023 23.65136719 C-4.67035195 15.75182981 -2.39191171 7.85997968 0 0 Z " fill="#F5F5F4" transform="translate(372,273)" /><path d="M0 0 C3.48693315 1.29787549 6.50859211 2.82050013 9.6328125 4.8359375 C10.51187256 5.39958008 11.39093262 5.96322266 12.29663086 6.54394531 C13.22999268 7.14819336 14.16335449 7.75244141 15.125 8.375 C17.10782802 9.64881878 19.09090537 10.92224953 21.07421875 12.1953125 C22.06856934 12.83500977 23.06291992 13.47470703 24.08740234 14.13378906 C27.56880981 16.36445785 31.06760528 18.56637146 34.56982422 20.76416016 C41.55644353 25.14862759 48.47469682 29.61214756 55.31396484 34.22290039 C60.16736799 37.48106147 65.10435252 40.59172599 70.0625 43.6875 C80.21543939 50.03728255 90.08564145 56.78732367 99.94140625 63.58642578 C101.61832496 64.73791527 103.30744027 65.87162685 105 67 C106.59134206 73.51399723 106.27706541 81.45038021 105 88 C102.4608759 91.93001958 99.19275453 93.12859981 95 95 C92.53804194 96.45013599 90.15164898 98.0150924 87.75 99.5625 C86.35832932 100.42958972 84.96502872 101.29406758 83.5703125 102.15625 C69.14964636 111.11005233 54.90959218 120.34164536 40.71826172 129.65332031 C32.53208722 135.01773136 24.29808293 140.30216345 16.02734375 145.53515625 C14.76857422 146.33179688 14.76857422 146.33179688 13.484375 147.14453125 C12.70642578 147.63518066 11.92847656 148.12583008 11.12695312 148.63134766 C9.24453452 149.84264686 7.41076408 151.10218492 5.578125 152.38671875 C3 154 3 154 0 154 C-3.78849466 124.56631071 -3.78849466 124.56631071 2.06542969 115.96533203 C7.58400763 110.89594066 14.11529633 107.67786539 20.86230469 104.52636719 C25.38002143 102.32867305 29.39366953 99.56234458 33.5 96.6875 C34.9263702 95.7326598 36.35472721 94.78078018 37.78515625 93.83203125 C43.50619567 90.00063204 49.17532013 86.09396183 54.83984375 82.1796875 C56.88250467 80.7707817 58.93532806 79.37644796 61 78 C61 77.34 61 76.68 61 76 C59.19824421 74.63755769 57.32547269 73.36886418 55.4296875 72.140625 C54.84524872 71.75942001 54.26080994 71.37821503 53.65866089 70.98545837 C51.73513523 69.73344042 49.80522119 68.4916657 47.875 67.25 C46.54946788 66.39024888 45.22427439 65.52997544 43.89941406 64.66918945 C35.01566867 58.90648039 26.09758926 53.19562737 17.14404297 47.54199219 C14.75817209 46.03497756 12.37870571 44.51829103 10 43 C9.15244141 42.46842285 8.30488281 41.9368457 7.43164062 41.38916016 C6.61373047 40.86499512 5.79582031 40.34083008 4.953125 39.80078125 C4.21739258 39.33454346 3.48166016 38.86830566 2.72363281 38.38793945 C1 37 1 37 0 34 C-0.08481773 31.41369776 -0.11598229 28.85521944 -0.09765625 26.26953125 C-0.0962413 25.51911057 -0.09482635 24.76868988 -0.09336853 23.99552917 C-0.0877756 21.6011454 -0.07522444 19.20685547 -0.0625 16.8125 C-0.05748408 15.18815239 -0.05292134 13.56380332 -0.04882812 11.93945312 C-0.03780848 7.95959931 -0.02054873 3.97981556 0 0 Z " fill="#F5F5F4" transform="translate(432,304)" /><path d="M0 0 C0.32320225 5.12227763 0.55796968 10.23855848 0.71411133 15.36865234 C0.77920754 17.10961262 0.86773109 18.8498694 0.98071289 20.58837891 C1.70216742 31.98148443 1.70216742 31.98148443 0 37 C-3.26449054 40.52844306 -6.77380769 42.30385412 -11.16891479 44.17401123 C-14.14978035 45.51865727 -16.84591845 47.2894322 -19.60546875 49.03515625 C-22.90676938 51.0551212 -26.20804526 53.07501053 -29.51367188 55.08789062 C-35.42383168 58.71001954 -41.18850611 62.4517181 -46.83618164 66.47094727 C-49.54720827 68.38668232 -52.31420952 70.17174701 -55.125 71.9375 C-56.05570313 72.52402344 -56.98640625 73.11054688 -57.9453125 73.71484375 C-58.96238281 74.35099609 -58.96238281 74.35099609 -60 75 C-51.25221524 81.82899273 -42.41335657 88.1550182 -32.87792969 93.83959961 C-26.50903295 97.64572139 -20.33398951 101.69854985 -14.18798828 105.85351562 C-13.49431152 106.32208984 -12.80063477 106.79066406 -12.0859375 107.2734375 C-11.41530273 107.72686523 -10.74466797 108.18029297 -10.05371094 108.64746094 C-7.26854222 110.48172564 -4.41860703 112.20298805 -1.55322266 113.90869141 C0 115 0 115 1 117 C1.08667255 119.62627133 1.11560135 122.22562483 1.09765625 124.8515625 C1.0962413 125.62559418 1.09482635 126.39962585 1.09336853 127.19711304 C1.08776403 129.67311442 1.07521083 132.14902588 1.0625 134.625 C1.05748558 136.30208203 1.05292257 137.97916547 1.04882812 139.65625 C1.03779315 143.77086806 1.02052554 147.88541878 1 152 C-6.47665303 147.78251875 -13.91198967 143.56978214 -21.0625 138.8125 C-27.51695519 134.57540188 -34.04567252 130.47774972 -40.625 126.4375 C-47.23210856 122.37286471 -53.75941695 118.22831683 -60.18359375 113.88085938 C-64.81053828 110.76117708 -69.50268832 107.75475275 -74.22241211 104.77734375 C-76.14824671 103.556628 -78.06716128 102.32492187 -79.97875977 101.08203125 C-84.00575255 98.46863111 -87.94208762 95.94588068 -92.296875 93.9140625 C-95.99814948 92.07935406 -98.53823866 90.43843839 -101 87 C-102.02668768 83.12047942 -102.2859449 79.37780887 -102.375 75.375 C-102.40190918 74.37218994 -102.42881836 73.36937988 -102.45654297 72.33618164 C-102.28292587 68.10716443 -102.00907146 65.15600926 -99.16748047 61.90063477 C-96.86264442 60.0675907 -94.5239143 58.5148559 -92 57 C-91.01217529 56.3517627 -91.01217529 56.3517627 -90.00439453 55.69042969 C-88.15030363 54.48168534 -86.27043018 53.33013693 -84.375 52.1875 C-79.14917593 48.98270273 -74.00740721 45.69571118 -68.9375 42.25 C-62.78481128 38.09074944 -56.48295924 34.211755 -50.125 30.375 C-41.57504522 25.21231848 -33.10197024 19.94339501 -24.6875 14.5625 C-23.66865723 13.91265137 -22.64981445 13.26280273 -21.60009766 12.59326172 C-15.96301813 8.97546228 -10.45978481 5.24340597 -5.06958008 1.26538086 C-3 0 -3 0 0 0 Z " fill="#F5F4F4" transform="translate(298,307)" /><path d="M0 0 C6.60485469 4.51095239 12.22418047 9.91466207 17.83813477 15.57739258 C19.32022343 17.07027971 20.81280987 18.55207542 22.30664062 20.03320312 C23.26366333 20.99154632 24.22006605 21.95050913 25.17578125 22.91015625 C26.03083252 23.76746338 26.88588379 24.62477051 27.7668457 25.50805664 C29.89713457 27.88521402 31.46714854 30.20939224 33 33 C28.57271562 37.68112531 25.48803677 38.59687627 19.10546875 38.796875 C18.10128906 38.80203125 17.09710937 38.8071875 16.0625 38.8125 C15.01578125 38.83183594 13.9690625 38.85117187 12.890625 38.87109375 C10.6982231 38.90785258 8.50563154 38.93454779 6.31298828 38.95166016 C3.06579094 38.99904004 -0.16667142 39.13466472 -3.41015625 39.29296875 C-5.44004174 39.36379172 -7.46998906 39.43286891 -9.5 39.5 C-10.43577881 39.55518799 -11.37155762 39.61037598 -12.33569336 39.66723633 C-17.7287533 39.77030087 -20.52676996 39.0621221 -24.65625 35.46875 C-25.79411994 34.33540889 -26.91763715 33.18646564 -28 32 C-24.16296103 26.56279482 -19.99621356 21.87654579 -15.234375 17.2265625 C-11.96978396 13.97338612 -8.98363261 10.50932026 -6 7 C-4.85421223 5.66662751 -3.70838146 4.33329198 -2.5625 3 C-1.716875 2.01 -0.87125 1.02 0 0 Z " fill="#F5F5F4" transform="translate(565,436)" /><path d="M0 0 C1.90318884 2.85478326 2.4619099 4.41941308 3.125 7.6875 C3.29257812 8.49574219 3.46015625 9.30398438 3.6328125 10.13671875 C3.75398437 10.75160156 3.87515625 11.36648438 4 12 C3.67 12 3.34 12 3 12 C2.67 73.38 2.34 134.76 2 198 C1.67 198 1.34 198 1 198 C0.81734292 186.56271565 0.65297701 175.1252171 0.5 163.6875 C0.48812275 162.80013027 0.4762455 161.91276054 0.46400833 160.99850082 C-0.01496259 124.76989221 -0.08645268 88.54391747 -0.0625 52.3125 C-0.06164398 51.00840054 -0.06078796 49.70430107 -0.05990601 48.36068344 C-0.04853647 32.24044173 -0.02849111 16.12022024 0 0 Z " fill="#060C10" transform="translate(524,612)" /><path d="M0 0 C0.33 0 0.66 0 1 0 C1 64.68 1 129.36 1 196 C0.67 196 0.34 196 0 196 C-0.00634791 194.55990885 -0.00634791 194.55990885 -0.01282406 193.09072495 C-0.11594361 169.74776547 -0.22468253 146.40483735 -0.33933926 123.06193161 C-0.39465543 111.77355742 -0.44813482 100.48518007 -0.49731445 89.19677734 C-0.54017593 79.35967081 -0.58645893 69.5225874 -0.63687855 59.6855166 C-0.66346362 54.4752044 -0.68831635 49.26489674 -0.70907402 44.0545578 C-0.72865614 39.15284435 -0.75280473 34.25117483 -0.78049088 29.34950066 C-0.78985294 27.54834987 -0.79753126 25.74718944 -0.80341911 23.94602394 C-0.8116946 21.49072142 -0.82597539 19.03552513 -0.84178162 16.58026123 C-0.84275972 15.86430526 -0.84373783 15.1483493 -0.84474558 14.4106977 C-0.87226568 11.09609054 -1.18719277 8.19856016 -2 5 C-1.0625 2.25 -1.0625 2.25 0 0 Z " fill="#000001" transform="translate(706,615)" /><path d="M0 0 C0.33 0 0.66 0 1 0 C1 38.28 1 76.56 1 116 C5.29 116.33 9.58 116.66 14 117 C14 117.33 14 117.66 14 118 C9.05 118 4.1 118 -1 118 C-1.083043 93.51038793 -0.83794583 69.02900821 -0.53643799 44.54150391 C-0.47475261 39.49838862 -0.41521623 34.45524793 -0.35546875 29.41210938 C-0.23901569 19.60804776 -0.12028695 9.80401527 0 0 Z " fill="#EFEFEE" transform="translate(709,693)" /><path d="M0 0 C0.33 0 0.66 0 1 0 C1 22.44 1 44.88 1 68 C-0.32 67.67 -1.64 67.34 -3 67 C-2.505 66.505 -2.505 66.505 -2 66 C-1.8465406 63.9459691 -1.76148394 61.88680252 -1.70288086 59.82788086 C-1.68322769 59.18399918 -1.66357452 58.54011749 -1.64332581 57.87672424 C-1.57924041 55.73953814 -1.52202896 53.60222472 -1.46484375 51.46484375 C-1.42185393 49.98652435 -1.37843748 48.50821729 -1.33460999 47.02992249 C-1.22020435 43.1321425 -1.11161761 39.23422098 -1.00421143 35.33624268 C-0.89366794 31.36143059 -0.77766408 27.38677837 -0.66210938 23.41210938 C-0.4360392 15.60821966 -0.21611144 7.80417252 0 0 Z " fill="#EBECEC" transform="translate(762,742)" /><path d="M0 0 C1.08885498 0.00410889 2.17770996 0.00821777 3.29956055 0.01245117 C4.4887207 0.01438477 5.67788086 0.01631836 6.90307617 0.01831055 C8.77576172 0.03667969 8.77576172 0.03667969 10.6862793 0.05541992 C11.92313477 0.05606445 13.15999023 0.05670898 14.43432617 0.05737305 C24.4863756 0.10624849 24.4863756 0.10624849 29.3737793 1.24291992 C29.3737793 1.90291992 29.3737793 2.56291992 29.3737793 3.24291992 C24.83212617 3.27203883 20.2904972 3.28975883 15.7487793 3.30541992 C14.46358398 3.31379883 13.17838867 3.32217773 11.85424805 3.33081055 C10.61030273 3.3340332 9.36635742 3.33725586 8.0847168 3.34057617 C6.94309082 3.34581299 5.80146484 3.3510498 4.62524414 3.35644531 C1.45496044 3.24575437 -1.51390924 2.83858748 -4.6262207 2.24291992 C-2.6262207 0.24291992 -2.6262207 0.24291992 0 0 Z " fill="#282E32" transform="translate(690.626220703125,525.757080078125)" /><path d="M0 0 C0.33 0 0.66 0 1 0 C1.95043457 11.35429868 2.11033706 22.61076383 2 34 C0.02 32.68 -1.96 31.36 -4 30 C-3.34 29.67 -2.68 29.34 -2 29 C-1.34 29.33 -0.68 29.66 0 30 C0 20.1 0 10.2 0 0 Z " fill="#FBFBFB" transform="translate(297,425)" /><path d="M0 0 C3.08404808 0.11020857 6.16691192 0.24075814 9.25 0.375 C10.55904297 0.42140625 10.55904297 0.42140625 11.89453125 0.46875 C13.16103516 0.52675781 13.16103516 0.52675781 14.453125 0.5859375 C15.22817383 0.6173584 16.00322266 0.6487793 16.80175781 0.68115234 C19.20865742 1.03026506 20.89602295 1.80551104 23 3 C15.57313685 3.10331031 8.36487404 2.99862699 1 2 C0.34 5.3 -0.32 8.6 -1 12 C-3 8 -3 8 -2.5390625 5.859375 C-2.23742187 5.16328125 -1.93578125 4.4671875 -1.625 3.75 C-1.32851563 3.04359375 -1.03203125 2.3371875 -0.7265625 1.609375 C-0.48679687 1.07828125 -0.24703125 0.5471875 0 0 Z " fill="#EEEFEF" transform="translate(686,528)" /><path d="M0 0 C0.66 0.33 1.32 0.66 2 1 C-1.29 16.435 -1.29 16.435 -5 22 C-5.99439537 18.90107564 -5.98269243 17.02779131 -5.0390625 13.92578125 C-4.81476563 13.17619141 -4.59046875 12.42660156 -4.359375 11.65429688 C-4.11703125 10.88150391 -3.8746875 10.10871094 -3.625 9.3125 C-3.39039063 8.52810547 -3.15578125 7.74371094 -2.9140625 6.93554688 C-1.15559977 1.15559977 -1.15559977 1.15559977 0 0 Z " fill="#EAEBEB" transform="translate(331,419)" /><path d="M0 0 C1.90318884 2.85478326 2.4619099 4.41941308 3.125 7.6875 C3.29257812 8.49574219 3.46015625 9.30398438 3.6328125 10.13671875 C3.75398437 10.75160156 3.87515625 11.36648438 4 12 C3.67 12 3.34 12 3 12 C2.67 21.57 2.34 31.14 2 41 C1.67 41 1.34 41 1 41 C0.67 27.47 0.34 13.94 0 0 Z " fill="#0F1619" transform="translate(524,612)" /><path d="M0 0 C6.6 0 13.2 0 20 0 C19.01 0.33 18.02 0.66 17 1 C17 1.66 17 2.32 17 3 C11.06 3 5.12 3 -1 3 C-0.67 2.01 -0.34 1.02 0 0 Z " fill="#252B32" transform="translate(667,433)" /><path d="M0 0 C8.25 0 16.5 0 25 0 C24.01 1.485 24.01 1.485 23 3 C20.37302936 3.22137393 17.99106036 3.28162025 15.375 3.1875 C14.66859375 3.17396484 13.9621875 3.16042969 13.234375 3.14648438 C11.48925872 3.1111104 9.74453392 3.05730221 8 3 C8 2.67 8 2.34 8 2 C5.36 1.67 2.72 1.34 0 1 C0 0.67 0 0.34 0 0 Z " fill="#33393E" transform="translate(727,527)" /><path d="M0 0 C0.66 0.33 1.32 0.66 2 1 C1.02367874 6.53248712 -0.66307023 11.88796614 -3 17 C-3.66 17.33 -4.32 17.66 -5 18 C-4.35852041 15.18644068 -3.71204485 12.37419761 -3.0625 9.5625 C-2.88009766 8.76005859 -2.69769531 7.95761719 -2.50976562 7.13085938 C-1.11328125 1.11328125 -1.11328125 1.11328125 0 0 Z " fill="#EAEBEB" transform="translate(351,349)" /><path d="M0 0 C0.66 0 1.32 0 2 0 C1.05618604 7.45116286 -0.23191316 13.46864948 -4 20 C-5.28961193 17.42077613 -4.79211692 16.59708789 -4.00390625 13.8671875 C-3.77509766 13.06152344 -3.54628906 12.25585938 -3.31054688 11.42578125 C-3.06369141 10.58402344 -2.81683594 9.74226563 -2.5625 8.875 C-2.31951172 8.02550781 -2.07652344 7.17601562 -1.82617188 6.30078125 C-1.2238569 4.19858388 -0.61489475 2.09854569 0 0 Z " fill="#E5E6E7" transform="translate(370,279)" /><path d="M0 0 C2.16965398 3.25448097 3.36143262 6.5253585 4.625 10.1875 C4.85445312 10.84169922 5.08390625 11.49589844 5.3203125 12.16992188 C5.88395144 13.77864135 6.44247984 15.38914977 7 17 C6.01 16.67 5.02 16.34 4 16 C4 15.01 4 14.02 4 13 C3.34 13 2.68 13 2 13 C1.47212358 11.02270019 0.95287097 9.04309608 0.4375 7.0625 C0.00244141 5.40927734 0.00244141 5.40927734 -0.44140625 3.72265625 C-0.62574219 2.82417969 -0.81007813 1.92570313 -1 1 C-0.67 0.67 -0.34 0.34 0 0 Z " fill="#ECEDED" transform="translate(583,630)" /><path d="M0 0 C0 2.97 0 5.94 0 9 C-0.66 9 -1.32 9 -2 9 C-1.67 10.32 -1.34 11.64 -1 13 C-1.99 13 -2.98 13 -4 13 C-3.88652381 11.02013918 -3.7589065 9.04108402 -3.625 7.0625 C-3.55539062 5.96035156 -3.48578125 4.85820312 -3.4140625 3.72265625 C-3.27742187 2.82417969 -3.14078125 1.92570313 -3 1 C-1 0 -1 0 0 0 Z " fill="#292D32" transform="translate(878,230)" /><path d="M0 0 C0.33 0 0.66 0 1 0 C1 7.26 1 14.52 1 22 C0.67 22 0.34 22 0 22 C-0.06058594 21.10796875 -0.12117187 20.2159375 -0.18359375 19.296875 C-0.26738281 18.12640625 -0.35117187 16.9559375 -0.4375 15.75 C-0.51871094 14.58984375 -0.59992187 13.4296875 -0.68359375 12.234375 C-0.89955968 9.13771311 -0.89955968 9.13771311 -1.59375 6.75 C-2.20592446 4.11294077 -1.12309339 2.37831542 0 0 Z " fill="#07080A" transform="translate(706,615)" /><path d="M0 0 C1.31625194 2.63250388 0.74813658 3.80179056 0.0625 6.625 C-0.13214844 7.44226563 -0.32679688 8.25953125 -0.52734375 9.1015625 C-0.76130859 10.04128906 -0.76130859 10.04128906 -1 11 C-1.66 11 -2.32 11 -3 11 C-3.66 12.32 -4.32 13.64 -5 15 C-3.97137215 9.55432314 -2.75385216 4.88182883 0 0 Z " fill="#121519" transform="translate(671,711)" /><path d="M0 0 C0 3.11227195 -0.45627049 5.94152152 -1 9 C-1.66 9 -2.32 9 -3 9 C-3 10.32 -3 11.64 -3 13 C-3.66 13 -4.32 13 -5 13 C-4.55170486 11.01853549 -4.09107502 9.03985789 -3.625 7.0625 C-3.24214844 5.40927734 -3.24214844 5.40927734 -2.8515625 3.72265625 C-2.43003906 2.37494141 -2.43003906 2.37494141 -2 1 C-1.34 0.67 -0.68 0.34 0 0 Z " fill="#EDEDED" transform="translate(347,368)" /><path d="M0 0 C0.99 0.33 1.98 0.66 3 1 C2.1875 4.4375 2.1875 4.4375 1 8 C0.01 8.33 -0.98 8.66 -2 9 C-1.34 6.03 -0.68 3.06 0 0 Z " fill="#EEEFF0" transform="translate(377,363)" /><path d="M0 0 C0.33 0 0.66 0 1 0 C1.33 3.3 1.66 6.6 2 10 C1.01 9.67 0.02 9.34 -1 9 C-0.67 6.03 -0.34 3.06 0 0 Z " fill="#E6E7E6" transform="translate(103,852)" /></svg>